<mxfile host="app.diagrams.net" agent="Mozilla/5.0 (Macintosh; Intel Mac OS X 10_15_7) AppleWebKit/537.36 (KHTML, like Gecko) Chrome/126.0.0.0 Safari/537.36" version="24.8.3">
  <diagram id="R2lEEEUBdFMjLlhIrx00" name="Page-1">
    <mxGraphModel dx="1309" dy="1671" grid="1" gridSize="10" guides="1" tooltips="1" connect="1" arrows="1" fold="1" page="1" pageScale="1" pageWidth="850" pageHeight="1100" math="0" shadow="0" extFonts="Permanent Marker^https://fonts.googleapis.com/css?family=Permanent+Marker">
      <root>
        <mxCell id="0" />
        <mxCell id="1" parent="0" />
        <mxCell id="wSYnHgC1MhD-27zC9zjZ-18" style="rounded=0;orthogonalLoop=1;jettySize=auto;html=1;" edge="1" parent="1" source="wSYnHgC1MhD-27zC9zjZ-1" target="wSYnHgC1MhD-27zC9zjZ-13">
          <mxGeometry relative="1" as="geometry" />
        </mxCell>
        <mxCell id="wSYnHgC1MhD-27zC9zjZ-19" style="rounded=0;orthogonalLoop=1;jettySize=auto;html=1;" edge="1" parent="1" source="wSYnHgC1MhD-27zC9zjZ-1" target="wSYnHgC1MhD-27zC9zjZ-11">
          <mxGeometry relative="1" as="geometry" />
        </mxCell>
        <mxCell id="wSYnHgC1MhD-27zC9zjZ-20" style="rounded=0;orthogonalLoop=1;jettySize=auto;html=1;" edge="1" parent="1" source="wSYnHgC1MhD-27zC9zjZ-1" target="wSYnHgC1MhD-27zC9zjZ-12">
          <mxGeometry relative="1" as="geometry" />
        </mxCell>
        <mxCell id="wSYnHgC1MhD-27zC9zjZ-1" value="Empleados" style="whiteSpace=wrap;html=1;align=center;" vertex="1" parent="1">
          <mxGeometry x="20" y="-360" width="100" height="40" as="geometry" />
        </mxCell>
        <mxCell id="wSYnHgC1MhD-27zC9zjZ-22" value="" style="rounded=0;orthogonalLoop=1;jettySize=auto;html=1;" edge="1" parent="1" source="wSYnHgC1MhD-27zC9zjZ-2" target="wSYnHgC1MhD-27zC9zjZ-21">
          <mxGeometry relative="1" as="geometry" />
        </mxCell>
        <mxCell id="wSYnHgC1MhD-27zC9zjZ-24" style="rounded=0;orthogonalLoop=1;jettySize=auto;html=1;" edge="1" parent="1" source="wSYnHgC1MhD-27zC9zjZ-2" target="wSYnHgC1MhD-27zC9zjZ-23">
          <mxGeometry relative="1" as="geometry" />
        </mxCell>
        <mxCell id="wSYnHgC1MhD-27zC9zjZ-2" value="Sucursales" style="whiteSpace=wrap;html=1;align=center;" vertex="1" parent="1">
          <mxGeometry y="-70" width="100" height="40" as="geometry" />
        </mxCell>
        <mxCell id="wSYnHgC1MhD-27zC9zjZ-3" value="Unidades" style="whiteSpace=wrap;html=1;align=center;" vertex="1" parent="1">
          <mxGeometry x="30" y="270" width="100" height="40" as="geometry" />
        </mxCell>
        <mxCell id="wSYnHgC1MhD-27zC9zjZ-4" value="Productos" style="whiteSpace=wrap;html=1;align=center;" vertex="1" parent="1">
          <mxGeometry x="20" y="370" width="100" height="40" as="geometry" />
        </mxCell>
        <mxCell id="wSYnHgC1MhD-27zC9zjZ-30" value="" style="rounded=0;orthogonalLoop=1;jettySize=auto;html=1;" edge="1" parent="1" source="wSYnHgC1MhD-27zC9zjZ-5" target="wSYnHgC1MhD-27zC9zjZ-29">
          <mxGeometry relative="1" as="geometry" />
        </mxCell>
        <mxCell id="wSYnHgC1MhD-27zC9zjZ-5" value="Pedidos" style="whiteSpace=wrap;html=1;align=center;" vertex="1" parent="1">
          <mxGeometry x="-20" y="120" width="100" height="40" as="geometry" />
        </mxCell>
        <mxCell id="wSYnHgC1MhD-27zC9zjZ-6" value="Reservas" style="whiteSpace=wrap;html=1;align=center;" vertex="1" parent="1">
          <mxGeometry x="230" y="280" width="100" height="40" as="geometry" />
        </mxCell>
        <mxCell id="wSYnHgC1MhD-27zC9zjZ-26" style="rounded=0;orthogonalLoop=1;jettySize=auto;html=1;entryX=0.5;entryY=0;entryDx=0;entryDy=0;" edge="1" parent="1" source="wSYnHgC1MhD-27zC9zjZ-7" target="wSYnHgC1MhD-27zC9zjZ-25">
          <mxGeometry relative="1" as="geometry" />
        </mxCell>
        <mxCell id="wSYnHgC1MhD-27zC9zjZ-28" style="rounded=0;orthogonalLoop=1;jettySize=auto;html=1;" edge="1" parent="1" source="wSYnHgC1MhD-27zC9zjZ-7" target="wSYnHgC1MhD-27zC9zjZ-27">
          <mxGeometry relative="1" as="geometry" />
        </mxCell>
        <mxCell id="wSYnHgC1MhD-27zC9zjZ-7" value="Clientes" style="whiteSpace=wrap;html=1;align=center;" vertex="1" parent="1">
          <mxGeometry x="350" y="-70" width="100" height="40" as="geometry" />
        </mxCell>
        <mxCell id="wSYnHgC1MhD-27zC9zjZ-8" value="Multas" style="whiteSpace=wrap;html=1;align=center;" vertex="1" parent="1">
          <mxGeometry y="460" width="100" height="40" as="geometry" />
        </mxCell>
        <mxCell id="wSYnHgC1MhD-27zC9zjZ-9" value="Empresas_Envios" style="whiteSpace=wrap;html=1;align=center;" vertex="1" parent="1">
          <mxGeometry x="240" y="340" width="100" height="40" as="geometry" />
        </mxCell>
        <mxCell id="wSYnHgC1MhD-27zC9zjZ-10" value="Tickets" style="whiteSpace=wrap;html=1;align=center;" vertex="1" parent="1">
          <mxGeometry x="270" y="460" width="100" height="40" as="geometry" />
        </mxCell>
        <mxCell id="wSYnHgC1MhD-27zC9zjZ-11" value="Nombre&lt;div&gt;Correo&lt;/div&gt;&lt;div&gt;Tipo_empleado&lt;/div&gt;" style="ellipse;whiteSpace=wrap;html=1;align=center;" vertex="1" parent="1">
          <mxGeometry x="30" y="-210" width="110" height="70" as="geometry" />
        </mxCell>
        <mxCell id="wSYnHgC1MhD-27zC9zjZ-12" value="id_empleado (PK)" style="ellipse;whiteSpace=wrap;html=1;align=center;fontStyle=4;" vertex="1" parent="1">
          <mxGeometry x="100" y="-250" width="120" height="40" as="geometry" />
        </mxCell>
        <mxCell id="wSYnHgC1MhD-27zC9zjZ-13" value="id_sucursal (FK)" style="ellipse;whiteSpace=wrap;html=1;align=center;fontStyle=4;" vertex="1" parent="1">
          <mxGeometry x="-50" y="-250" width="100" height="40" as="geometry" />
        </mxCell>
        <mxCell id="wSYnHgC1MhD-27zC9zjZ-21" value="Nombre&lt;div&gt;UbicaciÃ³n&lt;/div&gt;" style="ellipse;whiteSpace=wrap;html=1;align=center;" vertex="1" parent="1">
          <mxGeometry x="-40" y="10" width="100" height="40" as="geometry" />
        </mxCell>
        <mxCell id="wSYnHgC1MhD-27zC9zjZ-23" value="id_sucursal(PK)" style="ellipse;whiteSpace=wrap;html=1;align=center;fontStyle=4;" vertex="1" parent="1">
          <mxGeometry x="70" y="10" width="100" height="40" as="geometry" />
        </mxCell>
        <mxCell id="wSYnHgC1MhD-27zC9zjZ-25" value="Nombre&lt;div&gt;Tipo_cliente&lt;/div&gt;&lt;div&gt;Correo&lt;/div&gt;" style="ellipse;whiteSpace=wrap;html=1;align=center;" vertex="1" parent="1">
          <mxGeometry x="270" y="20" width="120" height="50" as="geometry" />
        </mxCell>
        <mxCell id="wSYnHgC1MhD-27zC9zjZ-27" value="id_clientes(PK)" style="ellipse;whiteSpace=wrap;html=1;align=center;fontStyle=4;" vertex="1" parent="1">
          <mxGeometry x="400" y="-10" width="100" height="40" as="geometry" />
        </mxCell>
        <mxCell id="wSYnHgC1MhD-27zC9zjZ-29" value="Fecha_pedido&lt;div&gt;Fecha_entrega&lt;/div&gt;" style="ellipse;whiteSpace=wrap;html=1;align=center;" vertex="1" parent="1">
          <mxGeometry x="-30" y="210" width="100" height="40" as="geometry" />
        </mxCell>
      </root>
    </mxGraphModel>
  </diagram>
</mxfile>
